<mxfile host="app.diagrams.net" modified="2024-06-24T19:16:00.019Z" agent="Mozilla/5.0 (Macintosh; Intel Mac OS X 10_15_7) AppleWebKit/537.36 (KHTML, like Gecko) Chrome/126.0.0.0 Safari/537.36" etag="NFoYb24NAyUD_YN0SFyx" version="24.3.1" type="github">
  <diagram id="C5RBs43oDa-KdzZeNtuy" name="Page-1">
    <mxGraphModel dx="1920" dy="1282" grid="1" gridSize="10" guides="1" tooltips="1" connect="1" arrows="1" fold="1" page="1" pageScale="1" pageWidth="3300" pageHeight="4681" math="0" shadow="0">
      <root>
        <mxCell id="WIyWlLk6GJQsqaUBKTNV-0" />
        <mxCell id="WIyWlLk6GJQsqaUBKTNV-1" parent="WIyWlLk6GJQsqaUBKTNV-0" />
        <mxCell id="VG9hoFB7-Ld1tasC14N7-14" value="neoscore" style="shape=folder;fontStyle=1;spacingTop=10;tabWidth=40;tabHeight=14;tabPosition=left;html=1;whiteSpace=wrap;" vertex="1" parent="WIyWlLk6GJQsqaUBKTNV-1">
          <mxGeometry x="1290" y="140" width="150" height="60" as="geometry" />
        </mxCell>
        <mxCell id="VG9hoFB7-Ld1tasC14N7-19" value="interface" style="shape=folder;fontStyle=1;spacingTop=10;tabWidth=40;tabHeight=14;tabPosition=left;html=1;whiteSpace=wrap;" vertex="1" parent="WIyWlLk6GJQsqaUBKTNV-1">
          <mxGeometry x="1230" y="240" width="70" height="50" as="geometry" />
        </mxCell>
        <mxCell id="VG9hoFB7-Ld1tasC14N7-75" style="edgeStyle=orthogonalEdgeStyle;rounded=0;orthogonalLoop=1;jettySize=auto;html=1;entryX=0.5;entryY=0;entryDx=0;entryDy=0;strokeColor=default;align=left;verticalAlign=bottom;fontFamily=Helvetica;fontSize=11;fontColor=default;labelBackgroundColor=default;startArrow=diamondThin;startFill=1;startSize=14;endArrow=open;endSize=12;" edge="1" parent="WIyWlLk6GJQsqaUBKTNV-1" source="VG9hoFB7-Ld1tasC14N7-22" target="VG9hoFB7-Ld1tasC14N7-74">
          <mxGeometry relative="1" as="geometry" />
        </mxCell>
        <mxCell id="VG9hoFB7-Ld1tasC14N7-22" value="core" style="shape=folder;fontStyle=1;spacingTop=10;tabWidth=40;tabHeight=14;tabPosition=left;html=1;whiteSpace=wrap;" vertex="1" parent="WIyWlLk6GJQsqaUBKTNV-1">
          <mxGeometry x="1675" y="220" width="70" height="50" as="geometry" />
        </mxCell>
        <mxCell id="VG9hoFB7-Ld1tasC14N7-27" style="edgeStyle=orthogonalEdgeStyle;rounded=0;orthogonalLoop=1;jettySize=auto;html=1;" edge="1" parent="WIyWlLk6GJQsqaUBKTNV-1" source="VG9hoFB7-Ld1tasC14N7-24">
          <mxGeometry relative="1" as="geometry">
            <mxPoint x="1260" y="290" as="targetPoint" />
          </mxGeometry>
        </mxCell>
        <mxCell id="VG9hoFB7-Ld1tasC14N7-24" value="qt" style="shape=folder;fontStyle=1;spacingTop=10;tabWidth=40;tabHeight=14;tabPosition=left;html=1;whiteSpace=wrap;" vertex="1" parent="WIyWlLk6GJQsqaUBKTNV-1">
          <mxGeometry x="1010" y="320" width="70" height="50" as="geometry" />
        </mxCell>
        <mxCell id="VG9hoFB7-Ld1tasC14N7-26" style="edgeStyle=orthogonalEdgeStyle;rounded=0;orthogonalLoop=1;jettySize=auto;html=1;entryX=0.5;entryY=1;entryDx=0;entryDy=0;entryPerimeter=0;exitX=0.5;exitY=0;exitDx=0;exitDy=0;" edge="1" parent="WIyWlLk6GJQsqaUBKTNV-1" source="VG9hoFB7-Ld1tasC14N7-64" target="VG9hoFB7-Ld1tasC14N7-19">
          <mxGeometry relative="1" as="geometry">
            <mxPoint x="1310" y="345" as="sourcePoint" />
            <Array as="points">
              <mxPoint x="1300" y="340" />
              <mxPoint x="1265" y="340" />
            </Array>
          </mxGeometry>
        </mxCell>
        <mxCell id="VG9hoFB7-Ld1tasC14N7-28" value="MusicText" style="shape=folder;fontStyle=1;spacingTop=10;tabWidth=40;tabHeight=14;tabPosition=left;html=1;whiteSpace=wrap;" vertex="1" parent="WIyWlLk6GJQsqaUBKTNV-1">
          <mxGeometry x="2550" y="740" width="70" height="50" as="geometry" />
        </mxCell>
        <mxCell id="VG9hoFB7-Ld1tasC14N7-30" value="Text" style="shape=folder;fontStyle=1;spacingTop=10;tabWidth=40;tabHeight=14;tabPosition=left;html=1;whiteSpace=wrap;" vertex="1" parent="WIyWlLk6GJQsqaUBKTNV-1">
          <mxGeometry x="2510" y="670" width="70" height="50" as="geometry" />
        </mxCell>
        <mxCell id="VG9hoFB7-Ld1tasC14N7-31" value="HasMusicFont" style="shape=folder;fontStyle=1;spacingTop=10;tabWidth=40;tabHeight=14;tabPosition=left;html=1;whiteSpace=wrap;" vertex="1" parent="WIyWlLk6GJQsqaUBKTNV-1">
          <mxGeometry x="2600" y="670" width="100" height="50" as="geometry" />
        </mxCell>
        <mxCell id="VG9hoFB7-Ld1tasC14N7-32" value="PaintedObject" style="shape=folder;fontStyle=1;spacingTop=10;tabWidth=40;tabHeight=14;tabPosition=left;html=1;whiteSpace=wrap;" vertex="1" parent="WIyWlLk6GJQsqaUBKTNV-1">
          <mxGeometry x="2470" y="600" width="90" height="50" as="geometry" />
        </mxCell>
        <mxCell id="VG9hoFB7-Ld1tasC14N7-33" value="1" style="endArrow=open;html=1;endSize=12;startArrow=diamondThin;startSize=14;startFill=1;edgeStyle=orthogonalEdgeStyle;align=left;verticalAlign=bottom;rounded=0;entryX=0;entryY=0;entryDx=40;entryDy=0;entryPerimeter=0;" edge="1" parent="WIyWlLk6GJQsqaUBKTNV-1" source="VG9hoFB7-Ld1tasC14N7-14" target="VG9hoFB7-Ld1tasC14N7-19">
          <mxGeometry x="-1" y="3" relative="1" as="geometry">
            <mxPoint x="1365" y="200" as="sourcePoint" />
            <mxPoint x="1365" y="360" as="targetPoint" />
          </mxGeometry>
        </mxCell>
        <mxCell id="VG9hoFB7-Ld1tasC14N7-34" value="1" style="endArrow=open;html=1;endSize=12;startArrow=diamondThin;startSize=14;startFill=1;edgeStyle=orthogonalEdgeStyle;align=left;verticalAlign=bottom;rounded=0;entryX=0;entryY=0;entryDx=20;entryDy=0;entryPerimeter=0;exitX=0.5;exitY=1;exitDx=0;exitDy=0;exitPerimeter=0;" edge="1" parent="WIyWlLk6GJQsqaUBKTNV-1" source="VG9hoFB7-Ld1tasC14N7-14" target="VG9hoFB7-Ld1tasC14N7-22">
          <mxGeometry x="-1" y="65" relative="1" as="geometry">
            <mxPoint x="1370" y="265" as="sourcePoint" />
            <mxPoint x="1280" y="250" as="targetPoint" />
            <mxPoint as="offset" />
          </mxGeometry>
        </mxCell>
        <mxCell id="VG9hoFB7-Ld1tasC14N7-35" value="PositionedObject" style="shape=folder;fontStyle=1;spacingTop=10;tabWidth=40;tabHeight=14;tabPosition=left;html=1;whiteSpace=wrap;" vertex="1" parent="WIyWlLk6GJQsqaUBKTNV-1">
          <mxGeometry x="2460" y="540" width="120" height="50" as="geometry" />
        </mxCell>
        <mxCell id="VG9hoFB7-Ld1tasC14N7-36" value="PositionedObjectInterface" style="shape=folder;fontStyle=1;spacingTop=10;tabWidth=40;tabHeight=14;tabPosition=left;html=1;whiteSpace=wrap;" vertex="1" parent="WIyWlLk6GJQsqaUBKTNV-1">
          <mxGeometry x="2550" y="350" width="185" height="50" as="geometry" />
        </mxCell>
        <mxCell id="VG9hoFB7-Ld1tasC14N7-37" value="InvisibleObjectInterface" style="shape=folder;fontStyle=1;spacingTop=10;tabWidth=40;tabHeight=14;tabPosition=left;html=1;whiteSpace=wrap;" vertex="1" parent="WIyWlLk6GJQsqaUBKTNV-1">
          <mxGeometry x="2460" y="440" width="185" height="50" as="geometry" />
        </mxCell>
        <mxCell id="VG9hoFB7-Ld1tasC14N7-38" style="edgeStyle=orthogonalEdgeStyle;rounded=0;orthogonalLoop=1;jettySize=auto;html=1;entryX=0.5;entryY=1;entryDx=0;entryDy=0;entryPerimeter=0;" edge="1" parent="WIyWlLk6GJQsqaUBKTNV-1" source="VG9hoFB7-Ld1tasC14N7-37" target="VG9hoFB7-Ld1tasC14N7-36">
          <mxGeometry relative="1" as="geometry" />
        </mxCell>
        <mxCell id="VG9hoFB7-Ld1tasC14N7-43" style="edgeStyle=orthogonalEdgeStyle;rounded=0;orthogonalLoop=1;jettySize=auto;html=1;exitX=0;exitY=0;exitDx=20;exitDy=0;exitPerimeter=0;entryX=0.25;entryY=1;entryDx=0;entryDy=0;entryPerimeter=0;" edge="1" parent="WIyWlLk6GJQsqaUBKTNV-1" source="VG9hoFB7-Ld1tasC14N7-39" target="VG9hoFB7-Ld1tasC14N7-40">
          <mxGeometry relative="1" as="geometry" />
        </mxCell>
        <mxCell id="VG9hoFB7-Ld1tasC14N7-39" value="MusicFont" style="shape=folder;fontStyle=1;spacingTop=10;tabWidth=40;tabHeight=14;tabPosition=left;html=1;whiteSpace=wrap;" vertex="1" parent="WIyWlLk6GJQsqaUBKTNV-1">
          <mxGeometry x="2120" y="440" width="100" height="50" as="geometry" />
        </mxCell>
        <mxCell id="VG9hoFB7-Ld1tasC14N7-40" value="Font" style="shape=folder;fontStyle=1;spacingTop=10;tabWidth=40;tabHeight=14;tabPosition=left;html=1;whiteSpace=wrap;" vertex="1" parent="WIyWlLk6GJQsqaUBKTNV-1">
          <mxGeometry x="2120" y="360" width="100" height="50" as="geometry" />
        </mxCell>
        <mxCell id="VG9hoFB7-Ld1tasC14N7-41" value="" style="shape=folder;fontStyle=1;spacingTop=10;tabWidth=40;tabHeight=14;tabPosition=left;html=1;whiteSpace=wrap;" vertex="1" parent="WIyWlLk6GJQsqaUBKTNV-1">
          <mxGeometry x="2090" y="250" width="100" height="50" as="geometry" />
        </mxCell>
        <mxCell id="VG9hoFB7-Ld1tasC14N7-58" style="edgeStyle=orthogonalEdgeStyle;rounded=0;orthogonalLoop=1;jettySize=auto;html=1;entryX=0.5;entryY=0;entryDx=0;entryDy=0;strokeColor=default;align=left;verticalAlign=bottom;fontFamily=Helvetica;fontSize=11;fontColor=default;labelBackgroundColor=default;startArrow=diamondThin;startFill=1;startSize=14;endArrow=open;endSize=12;exitX=0.496;exitY=1.01;exitDx=0;exitDy=0;exitPerimeter=0;" edge="1" parent="WIyWlLk6GJQsqaUBKTNV-1" source="VG9hoFB7-Ld1tasC14N7-62" target="VG9hoFB7-Ld1tasC14N7-52">
          <mxGeometry relative="1" as="geometry">
            <mxPoint x="1405" y="787" as="sourcePoint" />
          </mxGeometry>
        </mxCell>
        <mxCell id="VG9hoFB7-Ld1tasC14N7-52" value="main_window.ui" style="swimlane;fontStyle=1;align=center;verticalAlign=top;childLayout=stackLayout;horizontal=1;startSize=26;horizontalStack=0;resizeParent=1;resizeParentMax=0;resizeLast=0;collapsible=1;marginBottom=0;whiteSpace=wrap;html=1;fontFamily=Helvetica;fontSize=11;fontColor=default;labelBackgroundColor=default;" vertex="1" parent="WIyWlLk6GJQsqaUBKTNV-1">
          <mxGeometry x="1235" y="813" width="160" height="112" as="geometry" />
        </mxCell>
        <mxCell id="VG9hoFB7-Ld1tasC14N7-53" value="+ field: type" style="text;strokeColor=none;fillColor=none;align=left;verticalAlign=top;spacingLeft=4;spacingRight=4;overflow=hidden;rotatable=0;points=[[0,0.5],[1,0.5]];portConstraint=eastwest;whiteSpace=wrap;html=1;fontFamily=Helvetica;fontSize=11;fontColor=default;labelBackgroundColor=default;" vertex="1" parent="VG9hoFB7-Ld1tasC14N7-52">
          <mxGeometry y="26" width="160" height="26" as="geometry" />
        </mxCell>
        <mxCell id="VG9hoFB7-Ld1tasC14N7-54" value="" style="line;strokeWidth=1;fillColor=none;align=left;verticalAlign=middle;spacingTop=-1;spacingLeft=3;spacingRight=3;rotatable=0;labelPosition=right;points=[];portConstraint=eastwest;strokeColor=inherit;fontFamily=Helvetica;fontSize=11;fontColor=default;labelBackgroundColor=default;" vertex="1" parent="VG9hoFB7-Ld1tasC14N7-52">
          <mxGeometry y="52" width="160" height="8" as="geometry" />
        </mxCell>
        <mxCell id="VG9hoFB7-Ld1tasC14N7-55" value="+ method(type): updatePage" style="text;strokeColor=none;fillColor=none;align=left;verticalAlign=top;spacingLeft=4;spacingRight=4;overflow=hidden;rotatable=0;points=[[0,0.5],[1,0.5]];portConstraint=eastwest;whiteSpace=wrap;html=1;fontFamily=Helvetica;fontSize=11;fontColor=default;labelBackgroundColor=default;" vertex="1" parent="VG9hoFB7-Ld1tasC14N7-52">
          <mxGeometry y="60" width="160" height="26" as="geometry" />
        </mxCell>
        <mxCell id="VG9hoFB7-Ld1tasC14N7-57" value="+ method(type): refresh" style="text;strokeColor=none;fillColor=none;align=left;verticalAlign=top;spacingLeft=4;spacingRight=4;overflow=hidden;rotatable=0;points=[[0,0.5],[1,0.5]];portConstraint=eastwest;whiteSpace=wrap;html=1;fontFamily=Helvetica;fontSize=11;fontColor=default;labelBackgroundColor=default;" vertex="1" parent="VG9hoFB7-Ld1tasC14N7-52">
          <mxGeometry y="86" width="160" height="26" as="geometry" />
        </mxCell>
        <mxCell id="VG9hoFB7-Ld1tasC14N7-59" value="main_window.py" style="swimlane;fontStyle=1;align=center;verticalAlign=top;childLayout=stackLayout;horizontal=1;startSize=26;horizontalStack=0;resizeParent=1;resizeParentMax=0;resizeLast=0;collapsible=1;marginBottom=0;whiteSpace=wrap;html=1;fontFamily=Helvetica;fontSize=11;fontColor=default;labelBackgroundColor=default;" vertex="1" parent="WIyWlLk6GJQsqaUBKTNV-1">
          <mxGeometry x="1230" y="657" width="160" height="86" as="geometry" />
        </mxCell>
        <mxCell id="VG9hoFB7-Ld1tasC14N7-60" value="+ field: type" style="text;strokeColor=none;fillColor=none;align=left;verticalAlign=top;spacingLeft=4;spacingRight=4;overflow=hidden;rotatable=0;points=[[0,0.5],[1,0.5]];portConstraint=eastwest;whiteSpace=wrap;html=1;fontFamily=Helvetica;fontSize=11;fontColor=default;labelBackgroundColor=default;" vertex="1" parent="VG9hoFB7-Ld1tasC14N7-59">
          <mxGeometry y="26" width="160" height="26" as="geometry" />
        </mxCell>
        <mxCell id="VG9hoFB7-Ld1tasC14N7-61" value="" style="line;strokeWidth=1;fillColor=none;align=left;verticalAlign=middle;spacingTop=-1;spacingLeft=3;spacingRight=3;rotatable=0;labelPosition=right;points=[];portConstraint=eastwest;strokeColor=inherit;fontFamily=Helvetica;fontSize=11;fontColor=default;labelBackgroundColor=default;" vertex="1" parent="VG9hoFB7-Ld1tasC14N7-59">
          <mxGeometry y="52" width="160" height="8" as="geometry" />
        </mxCell>
        <mxCell id="VG9hoFB7-Ld1tasC14N7-62" value="+ method(type): type" style="text;strokeColor=none;fillColor=none;align=left;verticalAlign=top;spacingLeft=4;spacingRight=4;overflow=hidden;rotatable=0;points=[[0,0.5],[1,0.5]];portConstraint=eastwest;whiteSpace=wrap;html=1;fontFamily=Helvetica;fontSize=11;fontColor=default;labelBackgroundColor=default;" vertex="1" parent="VG9hoFB7-Ld1tasC14N7-59">
          <mxGeometry y="60" width="160" height="26" as="geometry" />
        </mxCell>
        <mxCell id="VG9hoFB7-Ld1tasC14N7-68" style="edgeStyle=orthogonalEdgeStyle;rounded=0;orthogonalLoop=1;jettySize=auto;html=1;entryX=0.5;entryY=0;entryDx=0;entryDy=0;strokeColor=default;align=left;verticalAlign=bottom;fontFamily=Helvetica;fontSize=11;fontColor=default;labelBackgroundColor=default;startArrow=diamondThin;startFill=1;startSize=14;endArrow=open;endSize=12;" edge="1" parent="WIyWlLk6GJQsqaUBKTNV-1" target="VG9hoFB7-Ld1tasC14N7-59">
          <mxGeometry relative="1" as="geometry">
            <mxPoint x="1300" y="516" as="sourcePoint" />
            <Array as="points">
              <mxPoint x="1300" y="657" />
            </Array>
          </mxGeometry>
        </mxCell>
        <mxCell id="VG9hoFB7-Ld1tasC14N7-64" value="app_interface" style="swimlane;fontStyle=1;align=center;verticalAlign=top;childLayout=stackLayout;horizontal=1;startSize=26;horizontalStack=0;resizeParent=1;resizeParentMax=0;resizeLast=0;collapsible=1;marginBottom=0;whiteSpace=wrap;html=1;fontFamily=Helvetica;fontSize=11;fontColor=default;labelBackgroundColor=default;" vertex="1" parent="WIyWlLk6GJQsqaUBKTNV-1">
          <mxGeometry x="1220" y="430" width="160" height="86" as="geometry" />
        </mxCell>
        <mxCell id="VG9hoFB7-Ld1tasC14N7-65" value="+ field: type" style="text;strokeColor=none;fillColor=none;align=left;verticalAlign=top;spacingLeft=4;spacingRight=4;overflow=hidden;rotatable=0;points=[[0,0.5],[1,0.5]];portConstraint=eastwest;whiteSpace=wrap;html=1;fontFamily=Helvetica;fontSize=11;fontColor=default;labelBackgroundColor=default;" vertex="1" parent="VG9hoFB7-Ld1tasC14N7-64">
          <mxGeometry y="26" width="160" height="26" as="geometry" />
        </mxCell>
        <mxCell id="VG9hoFB7-Ld1tasC14N7-66" value="" style="line;strokeWidth=1;fillColor=none;align=left;verticalAlign=middle;spacingTop=-1;spacingLeft=3;spacingRight=3;rotatable=0;labelPosition=right;points=[];portConstraint=eastwest;strokeColor=inherit;fontFamily=Helvetica;fontSize=11;fontColor=default;labelBackgroundColor=default;" vertex="1" parent="VG9hoFB7-Ld1tasC14N7-64">
          <mxGeometry y="52" width="160" height="8" as="geometry" />
        </mxCell>
        <mxCell id="VG9hoFB7-Ld1tasC14N7-67" value="+ method(type): type" style="text;strokeColor=none;fillColor=none;align=left;verticalAlign=top;spacingLeft=4;spacingRight=4;overflow=hidden;rotatable=0;points=[[0,0.5],[1,0.5]];portConstraint=eastwest;whiteSpace=wrap;html=1;fontFamily=Helvetica;fontSize=11;fontColor=default;labelBackgroundColor=default;" vertex="1" parent="VG9hoFB7-Ld1tasC14N7-64">
          <mxGeometry y="60" width="160" height="26" as="geometry" />
        </mxCell>
        <mxCell id="VG9hoFB7-Ld1tasC14N7-69" value="document.py" style="swimlane;fontStyle=1;align=center;verticalAlign=top;childLayout=stackLayout;horizontal=1;startSize=26;horizontalStack=0;resizeParent=1;resizeParentMax=0;resizeLast=0;collapsible=1;marginBottom=0;whiteSpace=wrap;html=1;fontFamily=Helvetica;fontSize=11;fontColor=default;labelBackgroundColor=default;" vertex="1" parent="WIyWlLk6GJQsqaUBKTNV-1">
          <mxGeometry x="1470" y="660" width="160" height="86" as="geometry" />
        </mxCell>
        <mxCell id="VG9hoFB7-Ld1tasC14N7-70" value="+ field: type" style="text;strokeColor=none;fillColor=none;align=left;verticalAlign=top;spacingLeft=4;spacingRight=4;overflow=hidden;rotatable=0;points=[[0,0.5],[1,0.5]];portConstraint=eastwest;whiteSpace=wrap;html=1;fontFamily=Helvetica;fontSize=11;fontColor=default;labelBackgroundColor=default;" vertex="1" parent="VG9hoFB7-Ld1tasC14N7-69">
          <mxGeometry y="26" width="160" height="26" as="geometry" />
        </mxCell>
        <mxCell id="VG9hoFB7-Ld1tasC14N7-71" value="" style="line;strokeWidth=1;fillColor=none;align=left;verticalAlign=middle;spacingTop=-1;spacingLeft=3;spacingRight=3;rotatable=0;labelPosition=right;points=[];portConstraint=eastwest;strokeColor=inherit;fontFamily=Helvetica;fontSize=11;fontColor=default;labelBackgroundColor=default;" vertex="1" parent="VG9hoFB7-Ld1tasC14N7-69">
          <mxGeometry y="52" width="160" height="8" as="geometry" />
        </mxCell>
        <mxCell id="VG9hoFB7-Ld1tasC14N7-72" value="+ method(type): type" style="text;strokeColor=none;fillColor=none;align=left;verticalAlign=top;spacingLeft=4;spacingRight=4;overflow=hidden;rotatable=0;points=[[0,0.5],[1,0.5]];portConstraint=eastwest;whiteSpace=wrap;html=1;fontFamily=Helvetica;fontSize=11;fontColor=default;labelBackgroundColor=default;" vertex="1" parent="VG9hoFB7-Ld1tasC14N7-69">
          <mxGeometry y="60" width="160" height="26" as="geometry" />
        </mxCell>
        <mxCell id="VG9hoFB7-Ld1tasC14N7-73" style="edgeStyle=orthogonalEdgeStyle;rounded=0;orthogonalLoop=1;jettySize=auto;html=1;exitX=1;exitY=0.5;exitDx=0;exitDy=0;entryX=0.5;entryY=0;entryDx=0;entryDy=0;strokeColor=default;align=left;verticalAlign=bottom;fontFamily=Helvetica;fontSize=11;fontColor=default;labelBackgroundColor=default;startArrow=diamondThin;startFill=1;startSize=14;endArrow=open;endSize=12;" edge="1" parent="WIyWlLk6GJQsqaUBKTNV-1" source="VG9hoFB7-Ld1tasC14N7-67" target="VG9hoFB7-Ld1tasC14N7-69">
          <mxGeometry relative="1" as="geometry" />
        </mxCell>
        <mxCell id="VG9hoFB7-Ld1tasC14N7-77" style="edgeStyle=orthogonalEdgeStyle;rounded=0;orthogonalLoop=1;jettySize=auto;html=1;exitX=0;exitY=0;exitDx=0;exitDy=15;exitPerimeter=0;entryX=1;entryY=0.5;entryDx=0;entryDy=0;strokeColor=default;align=left;verticalAlign=bottom;fontFamily=Helvetica;fontSize=11;fontColor=default;labelBackgroundColor=default;startArrow=diamondThin;startFill=1;startSize=14;endArrow=open;endSize=12;" edge="1" parent="WIyWlLk6GJQsqaUBKTNV-1" source="VG9hoFB7-Ld1tasC14N7-74" target="VG9hoFB7-Ld1tasC14N7-65">
          <mxGeometry relative="1" as="geometry" />
        </mxCell>
        <mxCell id="VG9hoFB7-Ld1tasC14N7-81" style="edgeStyle=orthogonalEdgeStyle;rounded=0;orthogonalLoop=1;jettySize=auto;html=1;exitX=0;exitY=0;exitDx=0;exitDy=35;exitPerimeter=0;strokeColor=default;align=left;verticalAlign=bottom;fontFamily=Helvetica;fontSize=11;fontColor=default;labelBackgroundColor=default;startArrow=diamondThin;startFill=1;startSize=14;endArrow=open;endSize=12;" edge="1" parent="WIyWlLk6GJQsqaUBKTNV-1" source="VG9hoFB7-Ld1tasC14N7-74">
          <mxGeometry relative="1" as="geometry">
            <mxPoint x="1659.571428571429" y="364.42857142857156" as="targetPoint" />
          </mxGeometry>
        </mxCell>
        <mxCell id="VG9hoFB7-Ld1tasC14N7-84" style="edgeStyle=orthogonalEdgeStyle;rounded=0;orthogonalLoop=1;jettySize=auto;html=1;exitX=0;exitY=0;exitDx=0;exitDy=35;exitPerimeter=0;entryX=0.5;entryY=0;entryDx=0;entryDy=0;strokeColor=default;align=left;verticalAlign=bottom;fontFamily=Helvetica;fontSize=11;fontColor=default;labelBackgroundColor=default;startArrow=diamondThin;startFill=1;startSize=14;endArrow=open;endSize=12;" edge="1" parent="WIyWlLk6GJQsqaUBKTNV-1" source="VG9hoFB7-Ld1tasC14N7-74" target="VG9hoFB7-Ld1tasC14N7-69">
          <mxGeometry relative="1" as="geometry" />
        </mxCell>
        <mxCell id="VG9hoFB7-Ld1tasC14N7-105" style="edgeStyle=orthogonalEdgeStyle;rounded=0;orthogonalLoop=1;jettySize=auto;html=1;exitX=1;exitY=0.75;exitDx=0;exitDy=0;entryX=0;entryY=0.5;entryDx=0;entryDy=0;strokeColor=default;align=left;verticalAlign=bottom;fontFamily=Helvetica;fontSize=11;fontColor=default;labelBackgroundColor=default;startArrow=diamondThin;startFill=1;startSize=14;endArrow=open;endSize=12;" edge="1" parent="WIyWlLk6GJQsqaUBKTNV-1" source="VG9hoFB7-Ld1tasC14N7-74" target="VG9hoFB7-Ld1tasC14N7-85">
          <mxGeometry relative="1" as="geometry" />
        </mxCell>
        <mxCell id="VG9hoFB7-Ld1tasC14N7-74" value="neoscore.py&lt;div&gt;- def setup&lt;/div&gt;&lt;div&gt;- def show&lt;/div&gt;" style="shape=module;align=left;spacingLeft=20;align=center;verticalAlign=top;whiteSpace=wrap;html=1;fontFamily=Helvetica;fontSize=11;fontColor=default;labelBackgroundColor=default;" vertex="1" parent="WIyWlLk6GJQsqaUBKTNV-1">
          <mxGeometry x="1660" y="330" width="100" height="50" as="geometry" />
        </mxCell>
        <mxCell id="VG9hoFB7-Ld1tasC14N7-79" value="name" style="endArrow=block;endFill=1;html=1;edgeStyle=orthogonalEdgeStyle;align=left;verticalAlign=top;rounded=0;strokeColor=default;fontFamily=Helvetica;fontSize=11;fontColor=default;labelBackgroundColor=default;startSize=14;endSize=12;exitX=0;exitY=0;exitDx=20;exitDy=0;exitPerimeter=0;entryX=0.5;entryY=1;entryDx=0;entryDy=0;entryPerimeter=0;" edge="1" parent="WIyWlLk6GJQsqaUBKTNV-1" source="VG9hoFB7-Ld1tasC14N7-40" target="VG9hoFB7-Ld1tasC14N7-41">
          <mxGeometry x="-1" relative="1" as="geometry">
            <mxPoint x="2210" y="630" as="sourcePoint" />
            <mxPoint x="2370" y="630" as="targetPoint" />
          </mxGeometry>
        </mxCell>
        <mxCell id="VG9hoFB7-Ld1tasC14N7-80" value="1" style="edgeLabel;resizable=0;html=1;align=left;verticalAlign=bottom;fontFamily=Helvetica;fontSize=11;fontColor=default;labelBackgroundColor=default;" connectable="0" vertex="1" parent="VG9hoFB7-Ld1tasC14N7-79">
          <mxGeometry x="-1" relative="1" as="geometry" />
        </mxCell>
        <mxCell id="VG9hoFB7-Ld1tasC14N7-82" style="edgeStyle=orthogonalEdgeStyle;rounded=0;orthogonalLoop=1;jettySize=auto;html=1;exitX=1;exitY=0.25;exitDx=0;exitDy=0;entryX=0;entryY=0;entryDx=0;entryDy=0;entryPerimeter=0;strokeColor=default;align=left;verticalAlign=bottom;fontFamily=Helvetica;fontSize=11;fontColor=default;labelBackgroundColor=default;startArrow=diamondThin;startFill=1;startSize=14;endArrow=open;endSize=12;" edge="1" parent="WIyWlLk6GJQsqaUBKTNV-1" source="VG9hoFB7-Ld1tasC14N7-74" target="VG9hoFB7-Ld1tasC14N7-40">
          <mxGeometry relative="1" as="geometry">
            <Array as="points">
              <mxPoint x="1760" y="355" />
              <mxPoint x="2010" y="355" />
            </Array>
          </mxGeometry>
        </mxCell>
        <mxCell id="VG9hoFB7-Ld1tasC14N7-104" style="edgeStyle=orthogonalEdgeStyle;rounded=0;orthogonalLoop=1;jettySize=auto;html=1;entryX=0.5;entryY=0;entryDx=0;entryDy=0;strokeColor=default;align=left;verticalAlign=bottom;fontFamily=Helvetica;fontSize=11;fontColor=default;labelBackgroundColor=default;startArrow=diamondThin;startFill=1;startSize=14;endArrow=open;endSize=12;" edge="1" parent="WIyWlLk6GJQsqaUBKTNV-1" source="VG9hoFB7-Ld1tasC14N7-85" target="VG9hoFB7-Ld1tasC14N7-89">
          <mxGeometry relative="1" as="geometry" />
        </mxCell>
        <mxCell id="VG9hoFB7-Ld1tasC14N7-85" value="brush" style="swimlane;fontStyle=1;align=center;verticalAlign=top;childLayout=stackLayout;horizontal=1;startSize=26;horizontalStack=0;resizeParent=1;resizeParentMax=0;resizeLast=0;collapsible=1;marginBottom=0;whiteSpace=wrap;html=1;fontFamily=Helvetica;fontSize=11;fontColor=default;labelBackgroundColor=default;" vertex="1" parent="WIyWlLk6GJQsqaUBKTNV-1">
          <mxGeometry x="1835" y="630" width="160" height="86" as="geometry" />
        </mxCell>
        <mxCell id="VG9hoFB7-Ld1tasC14N7-86" value="+ field: type" style="text;strokeColor=none;fillColor=none;align=left;verticalAlign=top;spacingLeft=4;spacingRight=4;overflow=hidden;rotatable=0;points=[[0,0.5],[1,0.5]];portConstraint=eastwest;whiteSpace=wrap;html=1;fontFamily=Helvetica;fontSize=11;fontColor=default;labelBackgroundColor=default;" vertex="1" parent="VG9hoFB7-Ld1tasC14N7-85">
          <mxGeometry y="26" width="160" height="26" as="geometry" />
        </mxCell>
        <mxCell id="VG9hoFB7-Ld1tasC14N7-87" value="" style="line;strokeWidth=1;fillColor=none;align=left;verticalAlign=middle;spacingTop=-1;spacingLeft=3;spacingRight=3;rotatable=0;labelPosition=right;points=[];portConstraint=eastwest;strokeColor=inherit;fontFamily=Helvetica;fontSize=11;fontColor=default;labelBackgroundColor=default;" vertex="1" parent="VG9hoFB7-Ld1tasC14N7-85">
          <mxGeometry y="52" width="160" height="8" as="geometry" />
        </mxCell>
        <mxCell id="VG9hoFB7-Ld1tasC14N7-88" value="+ method(type): type" style="text;strokeColor=none;fillColor=none;align=left;verticalAlign=top;spacingLeft=4;spacingRight=4;overflow=hidden;rotatable=0;points=[[0,0.5],[1,0.5]];portConstraint=eastwest;whiteSpace=wrap;html=1;fontFamily=Helvetica;fontSize=11;fontColor=default;labelBackgroundColor=default;" vertex="1" parent="VG9hoFB7-Ld1tasC14N7-85">
          <mxGeometry y="60" width="160" height="26" as="geometry" />
        </mxCell>
        <mxCell id="VG9hoFB7-Ld1tasC14N7-89" value="brush_pattern" style="swimlane;fontStyle=1;align=center;verticalAlign=top;childLayout=stackLayout;horizontal=1;startSize=26;horizontalStack=0;resizeParent=1;resizeParentMax=0;resizeLast=0;collapsible=1;marginBottom=0;whiteSpace=wrap;html=1;fontFamily=Helvetica;fontSize=11;fontColor=default;labelBackgroundColor=default;" vertex="1" parent="WIyWlLk6GJQsqaUBKTNV-1">
          <mxGeometry x="1835" y="813" width="160" height="86" as="geometry" />
        </mxCell>
        <mxCell id="VG9hoFB7-Ld1tasC14N7-90" value="+ field: type" style="text;strokeColor=none;fillColor=none;align=left;verticalAlign=top;spacingLeft=4;spacingRight=4;overflow=hidden;rotatable=0;points=[[0,0.5],[1,0.5]];portConstraint=eastwest;whiteSpace=wrap;html=1;fontFamily=Helvetica;fontSize=11;fontColor=default;labelBackgroundColor=default;" vertex="1" parent="VG9hoFB7-Ld1tasC14N7-89">
          <mxGeometry y="26" width="160" height="26" as="geometry" />
        </mxCell>
        <mxCell id="VG9hoFB7-Ld1tasC14N7-91" value="" style="line;strokeWidth=1;fillColor=none;align=left;verticalAlign=middle;spacingTop=-1;spacingLeft=3;spacingRight=3;rotatable=0;labelPosition=right;points=[];portConstraint=eastwest;strokeColor=inherit;fontFamily=Helvetica;fontSize=11;fontColor=default;labelBackgroundColor=default;" vertex="1" parent="VG9hoFB7-Ld1tasC14N7-89">
          <mxGeometry y="52" width="160" height="8" as="geometry" />
        </mxCell>
        <mxCell id="VG9hoFB7-Ld1tasC14N7-92" value="+ method(type): type" style="text;strokeColor=none;fillColor=none;align=left;verticalAlign=top;spacingLeft=4;spacingRight=4;overflow=hidden;rotatable=0;points=[[0,0.5],[1,0.5]];portConstraint=eastwest;whiteSpace=wrap;html=1;fontFamily=Helvetica;fontSize=11;fontColor=default;labelBackgroundColor=default;" vertex="1" parent="VG9hoFB7-Ld1tasC14N7-89">
          <mxGeometry y="60" width="160" height="26" as="geometry" />
        </mxCell>
        <mxCell id="VG9hoFB7-Ld1tasC14N7-94" value="brush_interface" style="html=1;whiteSpace=wrap;fontFamily=Helvetica;fontSize=11;fontColor=default;labelBackgroundColor=default;" vertex="1" parent="WIyWlLk6GJQsqaUBKTNV-1">
          <mxGeometry x="1860" y="500" width="110" height="50" as="geometry" />
        </mxCell>
        <mxCell id="VG9hoFB7-Ld1tasC14N7-102" value="" style="endArrow=block;dashed=1;endFill=0;endSize=12;html=1;rounded=0;strokeColor=default;align=left;verticalAlign=bottom;fontFamily=Helvetica;fontSize=11;fontColor=default;labelBackgroundColor=default;edgeStyle=orthogonalEdgeStyle;exitX=0.5;exitY=0;exitDx=0;exitDy=0;entryX=0.5;entryY=1;entryDx=0;entryDy=0;" edge="1" parent="WIyWlLk6GJQsqaUBKTNV-1" source="VG9hoFB7-Ld1tasC14N7-85" target="VG9hoFB7-Ld1tasC14N7-94">
          <mxGeometry width="160" relative="1" as="geometry">
            <mxPoint x="1940" y="690" as="sourcePoint" />
            <mxPoint x="2100" y="690" as="targetPoint" />
          </mxGeometry>
        </mxCell>
        <mxCell id="VG9hoFB7-Ld1tasC14N7-106" value="&lt;span style=&quot;font-size: 12px; font-weight: 700; background-color: rgb(251, 251, 251);&quot;&gt;FontInterface&lt;/span&gt;" style="html=1;whiteSpace=wrap;fontFamily=Helvetica;fontSize=11;fontColor=default;labelBackgroundColor=default;" vertex="1" parent="WIyWlLk6GJQsqaUBKTNV-1">
          <mxGeometry x="2250" y="240" width="110" height="50" as="geometry" />
        </mxCell>
      </root>
    </mxGraphModel>
  </diagram>
</mxfile>
